<svg width="232" height="181" viewBox="0 0 232 181" fill="none" xmlns="http://www.w3.org/2000/svg">
<path d="M176.913 111.737C173.234 100.406 165.281 90.4134 154.273 83.2922C143.266 76.1709 129.813 72.3145 115.978 72.3145C102.142 72.3145 88.6891 76.1709 77.6818 83.2922C66.6746 90.4134 58.7214 100.406 55.0422 111.737L46.2746 138.74C44.7004 143.588 44.4656 148.68 45.5883 153.618C46.7111 158.556 49.1612 163.207 52.7476 167.208C56.334 171.21 60.9597 174.453 66.2641 176.686C71.5685 178.919 77.4082 180.08 83.3279 180.08H148.627C154.547 180.08 160.387 178.919 165.691 176.686C170.996 174.453 175.621 171.21 179.208 167.208C182.794 163.207 185.244 158.556 186.367 153.618C187.49 148.68 187.255 143.588 185.681 138.74L176.913 111.737ZM166.976 159.293C164.834 161.703 162.06 163.655 158.875 164.996C155.69 166.337 152.182 167.029 148.627 167.018H83.3279C79.776 167.018 76.2721 166.321 73.0894 164.981C69.9067 163.642 67.1312 161.695 64.9794 159.295C62.8275 156.894 61.3574 154.103 60.6838 151.14C60.0101 148.177 60.1511 145.122 61.0956 142.213L69.8632 115.211C72.6476 106.636 78.6664 99.0738 86.9964 93.6847C95.3264 88.2955 105.507 85.3771 115.978 85.3771C126.448 85.3771 136.629 88.2955 144.959 93.6847C153.289 99.0738 159.308 106.636 162.092 115.211L170.86 142.213C171.818 145.121 171.966 148.179 171.292 151.144C170.618 154.108 169.14 156.899 166.976 159.295V159.293Z" fill="black"/>
<path d="M63.1964 81.0132C64.5341 73.9105 62.7602 66.3069 58.1996 59.5977C53.639 52.8885 46.774 47.7814 38.8669 45.2142C30.3992 42.4666 21.7623 42.9042 14.5389 46.4458C0.179116 53.4897 -3.59977 70.8502 6.11675 85.1455C10.6759 91.8547 17.5413 96.963 25.4484 99.5289C28.9511 100.689 32.6742 101.293 36.4334 101.313C41.1167 101.328 45.7208 100.287 49.7765 98.297C56.9955 94.755 61.7618 88.6168 63.1964 81.0132ZM48.0136 78.9486C47.3266 82.5934 45.2221 85.4472 42.088 86.9844C38.9539 88.5217 34.9929 88.6426 30.933 87.3261C26.3142 85.8276 22.2293 82.7334 19.4301 78.6142C14.0488 70.6951 15.3278 61.1431 22.2264 57.7583C23.9606 56.9222 25.9246 56.4915 27.9185 56.51C29.7888 56.5265 31.6399 56.8332 33.3805 57.415C37.9992 58.9143 42.0842 62.0081 44.8834 66.1273C47.6826 70.2465 48.7939 74.8008 48.0136 78.9486Z" fill="black"/>
<path d="M64.8617 53.9522C70.3208 57.6599 76.5549 59.5907 82.8591 59.5903C84.7475 59.5898 86.6303 59.4173 88.4753 59.0756C104.678 56.083 114.502 40.5256 110.375 24.3955C108.439 16.8249 103.731 10.1831 97.1199 5.69241C90.0402 0.883776 81.6541 -0.936401 73.5063 0.569052C57.304 3.56118 47.4798 19.1186 51.6066 35.2488C53.5433 42.8197 58.251 49.4616 64.8617 53.9522V53.9522ZM76.7716 13.3336C77.5187 13.1967 78.2809 13.1283 79.0452 13.1295C81.903 13.1295 84.8425 14.0794 87.5192 15.8975C91.3807 18.5202 94.1622 22.5243 95.3508 27.1725C97.6379 36.1101 92.9937 44.8754 85.2096 46.3131C81.6729 46.9662 77.856 46.0568 74.4629 43.7516C70.6014 41.1285 67.82 37.1245 66.6313 32.4767C64.3438 23.5366 68.988 14.7713 76.7716 13.3336Z" fill="black"/>
<path d="M217.461 46.4458C210.241 42.9042 201.599 42.4666 193.133 45.2142C185.226 47.7806 178.361 52.8884 173.801 59.5977C169.242 66.3069 167.468 73.9121 168.804 81.0132C170.237 88.6168 175.003 94.755 182.224 98.297C186.28 100.287 190.884 101.328 195.568 101.313C199.327 101.293 203.05 100.689 206.553 99.5289C214.46 96.963 221.325 91.8547 225.884 85.1455C235.6 70.8502 231.821 53.4897 217.461 46.4458ZM212.57 78.6142C209.771 82.7334 205.686 85.8276 201.067 87.3261C197.009 88.6438 193.047 88.5225 189.913 86.9844C186.779 85.4463 184.676 82.5934 183.987 78.9485C183.206 74.8008 184.317 70.2481 187.117 66.131C189.916 62.0138 194.001 58.918 198.619 57.4187C200.36 56.8363 202.211 56.5291 204.081 56.5121C206.075 56.4935 208.039 56.9242 209.774 57.7604C216.672 61.1423 217.953 70.693 212.57 78.6142V78.6142Z" fill="black"/>
<path d="M143.525 59.0756C145.37 59.4173 147.252 59.5899 149.141 59.5904C155.445 59.5904 161.681 57.66 167.138 53.9523C173.749 49.462 178.457 42.8197 180.393 35.2492C184.52 19.1191 174.696 3.56163 158.494 0.569501C150.346 -0.935136 141.96 0.883817 134.88 5.69286C128.269 10.1831 123.561 16.8254 121.625 24.3955C117.498 40.5256 127.322 56.0831 143.525 59.0756ZM136.649 27.1705C137.838 22.5223 140.619 18.5166 144.481 15.8955C147.158 14.0774 150.097 13.1275 152.955 13.1275C153.719 13.1263 154.481 13.1947 155.228 13.3316C163.012 14.7693 167.656 23.5366 165.37 32.4722C164.18 37.1204 161.398 41.1261 157.538 43.7476C154.145 46.0523 150.331 46.9618 146.791 46.3091C139.006 44.8734 134.362 36.1068 136.649 27.1705V27.1705Z" fill="black"/>
</svg>
